<svg width="150" height="150" viewBox="0 0 150 150" fill="none" xmlns="http://www.w3.org/2000/svg">
<path fill-rule="evenodd" clip-rule="evenodd" d="M75 148C115.317 148 148 115.317 148 75C148 34.6832 115.317 2 75 2C34.6832 2 2 34.6832 2 75C2 115.317 34.6832 148 75 148ZM75 150C116.421 150 150 116.421 150 75C150 33.5786 116.421 0 75 0C33.5786 0 0 33.5786 0 75C0 116.421 33.5786 150 75 150Z" fill="#FFC41E"/>
<path fill-rule="evenodd" clip-rule="evenodd" d="M53.438 53.5057C52.5352 53.5057 51.6637 53.8691 51.0167 54.5251C50.3689 55.182 50 56.0788 50 57.0197V87.3466C50 88.4512 49.1046 89.3466 48 89.3466C46.8954 89.3466 46 88.4512 46 87.3466V57.0197C46 55.0357 46.777 53.1276 48.1688 51.7163C49.5614 50.3042 51.4563 49.5057 53.438 49.5057C55.4197 49.5057 57.3145 50.3042 58.7072 51.7163C60.099 53.1276 60.876 55.0357 60.876 57.0197V76.3186C60.876 77.4232 59.9805 78.3186 58.876 78.3186C57.7714 78.3186 56.876 77.4232 56.876 76.3186V57.0197C56.876 56.0788 56.5071 55.182 55.8592 54.5251C55.2123 53.8691 54.3408 53.5057 53.438 53.5057Z" fill="black"/>
<path fill-rule="evenodd" clip-rule="evenodd" d="M64.5504 42.6591C63.5577 42.6591 62.6167 43.0428 61.9318 43.7084C61.2487 44.3722 60.876 45.2599 60.876 46.1731V76.5C60.876 77.6046 59.9805 78.5 58.876 78.5C57.7714 78.5 56.876 77.6046 56.876 76.5V46.1731C56.876 44.1614 57.6989 42.2442 59.1442 40.8398C60.5875 39.4372 62.5332 38.6591 64.5504 38.6591C66.5676 38.6591 68.5133 39.4372 69.9566 40.8398C71.4019 42.2442 72.2248 44.1614 72.2248 46.1731V73.743C72.2248 74.8476 71.3294 75.743 70.2248 75.743C69.1202 75.743 68.2248 74.8476 68.2248 73.743V46.1731C68.2248 45.2599 67.852 44.3722 67.169 43.7084C66.4841 43.0428 65.5431 42.6591 64.5504 42.6591Z" fill="black"/>
<path fill-rule="evenodd" clip-rule="evenodd" d="M86.775 45.4886C85.7787 45.4886 84.8364 45.8716 84.1522 46.5327C83.4704 47.1915 83.1006 48.07 83.1006 48.9709V73.8123C83.1006 74.9169 82.2052 75.8123 81.1006 75.8123C79.996 75.8123 79.1006 74.9169 79.1006 73.8123V48.9709C79.1006 46.9638 79.9265 45.0534 81.3729 43.656C82.817 42.2608 84.7614 41.4886 86.775 41.4886C88.7886 41.4886 90.733 42.2608 92.1771 43.656C93.6235 45.0534 94.4494 46.9638 94.4494 48.9709V87.3466C94.4494 88.4511 93.554 89.3466 92.4494 89.3466C91.3449 89.3466 90.4494 88.4511 90.4494 87.3466V48.9709C90.4494 48.07 90.0796 47.1915 89.3978 46.5327C88.7136 45.8716 87.7713 45.4886 86.775 45.4886Z" fill="black"/>
<path fill-rule="evenodd" clip-rule="evenodd" d="M75.6626 37C74.761 37 73.8899 37.3635 73.2427 38.0211C72.5944 38.6797 72.2246 39.5796 72.2246 40.5244V73.6705C72.2246 74.775 71.3292 75.6705 70.2246 75.6705C69.12 75.6705 68.2246 74.775 68.2246 73.6705V40.5244C68.2246 38.5388 69.0007 36.6284 70.392 35.215C71.7844 33.8005 73.6797 33 75.6626 33C77.6455 33 79.5408 33.8005 80.9331 35.215C82.3245 36.6284 83.1006 38.5388 83.1006 40.5244V73.6705C83.1006 74.775 82.2051 75.6705 81.1006 75.6705C79.996 75.6705 79.1006 74.775 79.1006 73.6705V40.5244C79.1006 39.5796 78.7308 38.6797 78.0825 38.0211C77.4353 37.3635 76.5641 37 75.6626 37Z" fill="black"/>
<path fill-rule="evenodd" clip-rule="evenodd" d="M96.9181 71.2914C98.9678 67.3931 103.815 66.4441 107.355 68.4576C109.166 69.4873 110.32 71.0453 110.777 72.8978C111.22 74.6958 110.973 76.6216 110.301 78.4474C110.3 78.4484 110.3 78.4495 110.3 78.4505L101.168 103.423C101.157 103.452 101.146 103.48 101.134 103.509C99.2919 107.908 96.6738 112.089 92.3721 115.146C88.0618 118.21 82.2678 120 74.3379 120C66.2564 120 59.1 117.294 53.9788 111.726C48.8724 106.174 46 98.0074 46 87.4722C46 86.3676 46.8954 85.4722 48 85.4722C49.1046 85.4722 50 86.3676 50 87.4722C50 97.3005 52.6724 104.397 56.9229 109.018C61.1586 113.624 67.1712 116 74.3379 116C81.6563 116 86.5803 114.356 90.0548 111.886C93.5258 109.419 95.756 105.983 97.4273 102.005L106.545 77.0719L106.546 77.0671C107.027 75.7629 107.095 74.6727 106.893 73.8552C106.705 73.0911 106.254 72.4333 105.378 71.9348L105.377 71.9346C103.565 70.9036 101.383 71.4971 100.496 73.0831L94.2058 88.2389C93.7823 89.2591 92.6121 89.7428 91.5919 89.3194C90.5717 88.8959 90.0879 87.7257 90.5114 86.7055L96.8411 71.4554C96.8643 71.3996 96.89 71.3449 96.9181 71.2914Z" fill="black"/>
<path fill-rule="evenodd" clip-rule="evenodd" d="M77.3461 90.1389C77.4944 90.161 77.6442 90.172 77.7941 90.172C78.8932 90.172 79.9611 89.5919 80.8033 88.5381C81.5528 87.6001 82.0737 86.3374 82.2718 84.9808C82.7404 81.7539 81.3129 78.9659 79.022 78.6285C78.8737 78.6065 78.724 78.5954 78.574 78.5954C77.4763 78.5968 76.4063 79.1762 75.5655 80.2279C74.8153 81.1652 74.2916 82.4293 74.0963 83.788C73.6277 87.015 75.0552 89.8029 77.3461 90.1389ZM68.8085 90.1721C67.7101 90.1721 66.6414 89.5919 65.7993 88.5381C65.0491 87.6001 64.5254 86.3374 64.33 84.9823C63.8615 81.7539 65.289 78.966 67.5799 78.63C67.7282 78.6079 67.8779 78.5968 68.0279 78.5968C69.1255 78.5968 70.1956 79.1763 71.0364 80.2279C71.7866 81.1653 72.3103 82.4294 72.5063 83.7866C72.9748 87.015 71.5474 89.803 69.2565 90.1389C69.1082 90.161 68.9584 90.1721 68.8085 90.1721ZM89.8891 88.1076C89.4963 87.1766 88.8438 86.5054 88.0016 86.1673L87.9903 86.1631C87.607 86.0133 87.1989 85.9367 86.7872 85.9372H86.7419C84.8141 85.9661 82.8459 87.6001 81.8452 90.0034C81.1113 91.7608 81.027 93.651 81.6201 95.0598C82.0122 95.9914 82.6661 96.6627 83.5118 97.0008L83.521 97.0043C83.9044 97.1539 84.3125 97.2305 84.7242 97.2301C86.6704 97.2301 88.6591 95.5962 89.6782 93.1612C90.4029 91.4058 90.4829 89.5171 89.8891 88.1076ZM82.1864 98.473C81.0746 97.8067 80.0236 97.1765 79.3371 96.0443C77.4433 92.9106 76.2996 91.019 73.301 91.019C70.3024 91.019 69.1559 92.9106 67.2578 96.0443C66.5706 97.1767 65.519 97.8076 64.4049 98.4759L64.4014 98.478L64.4013 98.4781C63.1225 99.2445 61.8012 100.036 61.2308 101.595C61.0091 102.157 60.8974 102.756 60.9017 103.359C60.9017 105.897 62.8834 107.961 65.3179 107.961C66.5741 107.961 67.911 107.527 69.3257 107.068C70.686 106.626 72.0922 106.169 73.3081 106.169C74.5239 106.169 75.9266 106.626 77.2819 107.068L77.3201 107.08C78.7178 107.532 80.0357 107.958 81.2841 107.958C83.7151 107.958 85.6932 105.894 85.6932 103.357C85.6952 102.752 85.5811 102.153 85.357 101.592C84.7867 100.032 83.465 99.2398 82.1871 98.4734L82.1864 98.473ZM63.0907 97.0008L63.0808 97.0043C62.6982 97.1539 62.2908 97.2305 61.8798 97.2301C59.9357 97.2301 57.9477 95.5955 56.9335 93.1633C56.2011 91.4058 56.1175 89.5178 56.7106 88.1062C57.102 87.1752 57.7552 86.5019 58.5974 86.1666L58.6073 86.1631C58.9906 86.0132 59.3987 85.9366 59.8104 85.9372C61.7545 85.9372 63.7425 87.5719 64.7567 90.0041C65.4892 91.7615 65.5727 93.6496 64.9796 95.0612C64.5883 95.9922 63.935 96.6627 63.0907 97.0008Z" fill="#FFC41E"/>
</svg>
