<svg width="474" height="107" viewBox="0 0 474 107" fill="none" xmlns="http://www.w3.org/2000/svg">
<g opacity="0.5">
<path d="M6.45985 60.4178C10.9979 55.5974 14.0774 50.8233 15.6981 46.0955C17.3189 41.3678 18.2219 34.6701 18.4071 26.0026L18.9628 1.39051H74.2535V60.4178H85.0894V99.2131H65.0152V76.6173H20.4909V99.2131H0V60.4178H6.45985ZM30.146 60.4178H54.2488V18.0071H38.6202L38.4812 27.0455C38.0645 40.8579 35.286 51.982 30.146 60.4178Z" fill="white"/>
<path d="M161.705 39.6992C161.705 51.2868 159.065 60.58 153.786 67.5789C148.553 74.5315 141.468 78.0078 132.531 78.0078C124.937 78.0078 118.801 75.3658 114.124 70.0819V105.54H94.0498V1.39051H112.665L113.36 8.76023C118.222 2.92008 124.566 0 132.392 0C141.654 0 148.854 3.42993 153.994 10.2898C159.135 17.1497 161.705 26.6052 161.705 38.6563V39.6992ZM141.63 38.2391C141.63 31.2402 140.38 25.8404 137.88 22.0396C135.425 18.2389 131.836 16.3385 127.113 16.3385C120.815 16.3385 116.486 18.7488 114.124 23.5692V54.3691C116.578 59.3286 120.954 61.8083 127.252 61.8083C136.838 61.8083 141.63 53.9519 141.63 38.2391Z" fill="white"/>
<path d="M201.436 48.1813L215.328 1.39051H236.861L206.646 88.2976L204.979 92.2606C200.487 102.087 193.078 107 182.751 107C179.834 107 176.87 106.56 173.86 105.679V90.4529L176.916 90.5224C180.714 90.5224 183.538 89.943 185.391 88.7843C187.289 87.6255 188.771 85.702 189.836 83.0136L192.198 76.8259L165.872 1.39051H187.475L201.436 48.1813Z" fill="white"/>
<path d="M295.972 17.6595H264.854V76.6173H244.78V1.39051H295.972V17.6595Z" fill="white"/>
<path d="M299.862 38.3086C299.862 30.8462 301.298 24.1949 304.169 18.3548C307.04 12.5146 311.161 7.99545 316.533 4.79727C321.951 1.59909 328.225 0 335.356 0C345.498 0 353.764 3.10548 360.154 9.31644C366.591 15.5274 370.179 23.9632 370.92 34.6238L371.059 39.7687C371.059 51.3099 367.841 60.58 361.404 67.5789C354.967 74.5315 346.331 78.0078 335.495 78.0078C324.659 78.0078 316 74.5315 309.517 67.5789C303.08 60.6264 299.862 51.1709 299.862 39.2125V38.3086ZM319.936 39.7687C319.936 46.9066 321.279 52.376 323.965 56.1767C326.651 59.9311 330.494 61.8083 335.495 61.8083C340.358 61.8083 344.155 59.9543 346.887 56.2463C349.619 52.4919 350.985 46.5127 350.985 38.3086C350.985 31.3097 349.619 25.8867 346.887 22.0396C344.155 18.1925 340.311 16.269 335.356 16.269C330.448 16.269 326.651 18.1925 323.965 22.0396C321.279 25.8404 319.936 31.7501 319.936 39.7687Z" fill="white"/>
<path d="M429.198 52.909L448.855 1.39051H474V76.6173H453.926V30.4522L435.936 76.6173H422.46L404.817 31.217V76.6173H384.743V1.39051H409.679L429.198 52.909Z" fill="white"/>
</g>
</svg>
