<svg width="532" height="107" viewBox="0 0 532 107" fill="none" xmlns="http://www.w3.org/2000/svg">
<g opacity="0.6">
<path d="M70.6099 0V76.2172H50.2368V16.4832H32.2606L30.9917 40.0105C30.1927 52.549 27.7254 61.6829 23.5897 67.4121C19.454 73.1413 13.2974 76.0764 5.12 76.2172H-1.78851L-2 59.6636L0.537822 59.4523C4.20356 59.1705 6.88238 57.0103 8.57426 52.9717C10.2661 48.9331 11.3236 42.0533 11.7465 32.3325L13.1564 0H70.6099Z" fill="white"/>
<path d="M114.81 47.4068L128.909 0H150.763L120.097 88.0514L118.406 92.0665C113.847 102.022 106.327 107 95.8471 107C92.8863 107 89.8785 106.554 86.8238 105.662V90.235L89.9255 90.3055C93.7793 90.3055 96.6461 89.7185 98.5259 88.5444C100.453 87.3704 101.957 85.4215 103.038 82.6978L105.434 76.4286L78.7168 0H100.641L114.81 47.4068Z" fill="white"/>
<path d="M223.091 76.2172H202.718V52.2673C198.911 52.9717 195.363 53.3239 192.073 53.3239C180.559 53.3239 171.888 50.8819 166.06 45.998C160.233 41.1141 157.272 33.9761 157.178 24.5839V0H177.551V24.5839C177.598 28.9982 178.679 32.1681 180.794 34.0935C182.909 35.9719 186.668 36.9111 192.073 36.9111C195.457 36.9111 199.005 36.512 202.718 35.7136V0H223.091V76.2172Z" fill="white"/>
<path d="M259.114 0V59.8045H280.051V0H300.494V59.8045H321.431V0H341.804V76.2172H238.741V0H259.114Z" fill="white"/>
<path d="M404.122 0H424.495V76.2172H404.122V29.1626L378.603 76.2172H358.159V0H378.603V46.9842L404.122 0Z" fill="white"/>
<path d="M486.531 52.1968L506.481 0H532V76.2172H511.627V29.4444L493.369 76.2172H479.693L461.787 30.2192V76.2172H441.414V0H466.722L486.531 52.1968Z" fill="white"/>
</g>
</svg>
