<svg width="599" height="192" viewBox="0 0 599 192" fill="none" xmlns="http://www.w3.org/2000/svg">
<g opacity="0.5">
<path d="M80.0658 149.943V99.4165H56.5567L31.217 149.943H0L29.9645 90.1774C15.5121 82.2216 8.28599 69.8707 8.28599 53.1248C8.28599 39.3945 12.7823 28.7759 21.7748 21.2692C30.7674 13.7624 43.3248 9.94486 59.4472 9.81654H109.067V149.943H80.0658ZM37.1906 55.2421C37.1906 63.0697 39.0855 68.7479 42.8752 72.2767C46.7291 75.8055 52.4779 77.5699 60.1216 77.5699H80.0658V33.203H60.1216C44.8343 33.203 37.1906 40.5494 37.1906 55.2421Z" fill="white"/>
<path d="M232.008 51.585C245.368 51.585 256.031 56.012 263.995 64.8662C271.96 73.7203 275.943 85.7504 275.943 100.956V102.304C275.943 117.317 271.511 129.347 262.647 138.394C253.783 147.441 241.867 151.964 226.901 151.964C211.871 151.964 199.891 147.088 190.963 137.335C182.099 127.519 177.667 114.206 177.667 97.3955V92.7759C177.796 69.3574 181.746 51.0396 189.518 37.8226C197.354 24.5414 209.109 16.1684 224.782 12.7038C233.003 10.9073 238.302 9.14286 240.679 7.41053C243.056 5.61404 244.244 3.14386 244.244 0H266.79C266.79 10.0732 264.06 17.6441 258.6 22.7128C253.204 27.7815 243.57 31.6952 229.695 34.4541C221.474 36.1223 214.986 39.3624 210.233 44.1744C205.48 48.9865 202.268 55.7554 200.598 64.4812C209.462 55.8837 219.932 51.585 232.008 51.585ZM226.709 74.1053C220.093 74.1053 214.89 76.3188 211.1 80.7459C207.375 85.1729 205.512 92.3589 205.512 102.304C205.512 111.158 207.342 117.927 211.004 122.611C214.665 127.23 219.964 129.54 226.901 129.54C233.646 129.54 238.848 127.262 242.51 122.707C246.171 118.151 248.034 111.447 248.098 102.592V100.283C248.098 91.7494 246.203 85.2692 242.413 80.8421C238.688 76.3509 233.453 74.1053 226.709 74.1053Z" fill="white"/>
<path d="M331.536 110.58L350.806 45.8105H380.674L338.762 166.111L336.45 171.597C330.219 185.199 319.942 192 305.618 192C301.571 192 297.461 191.39 293.285 190.171V169.095L297.525 169.191C302.792 169.191 306.71 168.389 309.279 166.785C311.913 165.181 313.968 162.518 315.446 158.797L318.722 150.232L282.205 45.8105H312.17L331.536 110.58Z" fill="white"/>
<path d="M387.707 127.519C394.002 120.846 398.273 114.238 400.522 107.693C402.77 101.149 404.022 91.8777 404.279 79.8797L405.05 45.8105H481.744V127.519H496.774V181.221H468.929V149.943H407.17V181.221H378.747V127.519H387.707ZM420.562 127.519H453.995V68.812H432.317L432.124 81.3233C431.546 100.443 427.692 115.842 420.562 127.519Z" fill="white"/>
<path d="M549.862 110.58L569.132 45.8105H599L557.088 166.111L554.776 171.597C548.545 185.199 538.268 192 523.944 192C519.898 192 515.787 191.39 511.612 190.171V169.095L515.851 169.191C521.118 169.191 525.036 168.389 527.606 166.785C530.239 165.181 532.295 162.518 533.772 158.797L537.048 150.232L500.532 45.8105H530.496L549.862 110.58Z" fill="white"/>
</g>
</svg>
